<?plantuml 1.2026.2?><svg xmlns="http://www.w3.org/2000/svg" xmlns:xlink="http://www.w3.org/1999/xlink" contentStyleType="text/css" data-diagram-type="DESCRIPTION" height="705px" preserveAspectRatio="none" style="width:1000px;height:705px;background:#FFFFFF;" version="1.1" viewBox="0 0 1000 705" width="1000px" zoomAndPan="magnify"><defs/><g><!--cluster Field Level--><g class="cluster" data-qualified-name="Field Level" data-source-line="3" id="ent0002"><path d="M31.5,6 L117.8877,6 A3.75,3.75 0 0 1 120.3877,8.5 L127.3877,28.2969 L494.5,28.2969 A2.5,2.5 0 0 1 497,30.7969 L497,280.09 A2.5,2.5 0 0 1 494.5,282.59 L31.5,282.59 A2.5,2.5 0 0 1 29,280.09 L29,8.5 A2.5,2.5 0 0 1 31.5,6" fill="none" style="stroke:#000000;stroke-width:1.5;"/><line style="stroke:#000000;stroke-width:1.5;" x1="29" x2="127.3877" y1="28.2969" y2="28.2969"/><text fill="#000000" font-family="sans-serif" font-size="14" font-weight="bold" lengthAdjust="spacing" textLength="85.3877" x="33" y="20.9951">Field Level</text></g><!--cluster Zigbee Sensor Node--><g class="cluster" data-qualified-name="Field Level.Zigbee Sensor Node" data-source-line="4" id="ent0003"><polygon fill="none" points="53,59,63,49,473,49,473,248.59,463,258.59,53,258.59,53,59" style="stroke:#181818;stroke-width:1;"/><line style="stroke:#181818;stroke-width:1;" x1="463" x2="473" y1="59" y2="49"/><line style="stroke:#181818;stroke-width:1;" x1="53" x2="463" y1="59" y2="59"/><line style="stroke:#181818;stroke-width:1;" x1="463" x2="463" y1="59" y2="258.59"/><text fill="#000000" font-family="sans-serif" font-size="14" font-weight="bold" lengthAdjust="spacing" textLength="158.9834" x="179.5083" y="74.9951">Zigbee Sensor Node</text></g><!--cluster Industrial Edge Gateway--><g class="cluster" data-qualified-name="Industrial Edge Gateway" data-source-line="11" id="ent0011"><polygon fill="none" points="276,399.59,286,389.59,983,389.59,983,678.78,973,688.78,276,688.78,276,399.59" style="stroke:#181818;stroke-width:1;"/><line style="stroke:#181818;stroke-width:1;" x1="973" x2="983" y1="399.59" y2="389.59"/><line style="stroke:#181818;stroke-width:1;" x1="276" x2="973" y1="399.59" y2="399.59"/><line style="stroke:#181818;stroke-width:1;" x1="973" x2="973" y1="399.59" y2="688.78"/><text fill="#000000" font-family="sans-serif" font-size="14" font-weight="bold" lengthAdjust="spacing" textLength="193.6211" x="528.6895" y="415.5851">Industrial Edge Gateway</text></g><!--cluster OT Network--><g class="cluster" data-qualified-name="OT Network" data-source-line="24" id="ent0021"><path d="M8.5,346.59 L102.4961,346.59 A3.75,3.75 0 0 1 104.9961,349.09 L111.9961,368.8869 L249.5,368.8869 A2.5,2.5 0 0 1 252,371.3869 L252,529.69 A2.5,2.5 0 0 1 249.5,532.19 L8.5,532.19 A2.5,2.5 0 0 1 6,529.69 L6,349.09 A2.5,2.5 0 0 1 8.5,346.59" fill="none" style="stroke:#000000;stroke-width:1.5;"/><line style="stroke:#000000;stroke-width:1.5;" x1="6" x2="111.9961" y1="368.8869" y2="368.8869"/><text fill="#000000" font-family="sans-serif" font-size="14" font-weight="bold" lengthAdjust="spacing" textLength="92.9961" x="10" y="361.5851">OT Network</text></g><!--cluster PLC / SCADA--><g class="cluster" data-qualified-name="OT Network.PLC . SCADA" data-source-line="25" id="ent0022"><polygon fill="none" points="30,399.59,40,389.59,228,389.59,228,498.19,218,508.19,30,508.19,30,399.59" style="stroke:#181818;stroke-width:1;"/><line style="stroke:#181818;stroke-width:1;" x1="218" x2="228" y1="399.59" y2="389.59"/><line style="stroke:#181818;stroke-width:1;" x1="30" x2="218" y1="399.59" y2="399.59"/><line style="stroke:#181818;stroke-width:1;" x1="218" x2="218" y1="399.59" y2="508.19"/><text fill="#000000" font-family="sans-serif" font-size="14" font-weight="bold" lengthAdjust="spacing" textLength="97.9658" x="76.0171" y="415.5851">PLC / SCADA</text></g><!--entity Battery--><g class="entity" data-qualified-name="Field Level.Zigbee Sensor Node.Battery" data-source-line="5" id="ent0004"><rect fill="#F1F1F1" height="46.2969" rx="2.5" ry="2.5" style="stroke:#181818;stroke-width:0.5;" width="91.8164" x="69.09" y="196.3"/><rect fill="#F1F1F1" height="10" style="stroke:#181818;stroke-width:0.5;" width="15" x="140.9064" y="201.3"/><rect fill="#F1F1F1" height="2" style="stroke:#181818;stroke-width:0.5;" width="4" x="138.9064" y="203.3"/><rect fill="#F1F1F1" height="2" style="stroke:#181818;stroke-width:0.5;" width="4" x="138.9064" y="207.3"/><text fill="#000000" font-family="sans-serif" font-size="14" lengthAdjust="spacing" textLength="51.8164" x="84.09" y="229.2951">Battery</text></g><!--entity MCU--><g class="entity" data-qualified-name="Field Level.Zigbee Sensor Node.MCU" data-source-line="5" id="ent0005"><rect fill="#F1F1F1" height="46.2969" rx="2.5" ry="2.5" style="stroke:#181818;stroke-width:0.5;" width="72.1016" x="195.95" y="196.3"/><rect fill="#F1F1F1" height="10" style="stroke:#181818;stroke-width:0.5;" width="15" x="248.0516" y="201.3"/><rect fill="#F1F1F1" height="2" style="stroke:#181818;stroke-width:0.5;" width="4" x="246.0516" y="203.3"/><rect fill="#F1F1F1" height="2" style="stroke:#181818;stroke-width:0.5;" width="4" x="246.0516" y="207.3"/><text fill="#000000" font-family="sans-serif" font-size="14" lengthAdjust="spacing" textLength="32.1016" x="210.95" y="229.2951">MCU</text></g><!--entity Sensor--><g class="entity" data-qualified-name="Field Level.Zigbee Sensor Node.Sensor" data-source-line="6" id="ent0007"><rect fill="#F1F1F1" height="46.2969" rx="2.5" ry="2.5" style="stroke:#181818;stroke-width:0.5;" width="87.9883" x="188.01" y="89"/><rect fill="#F1F1F1" height="10" style="stroke:#181818;stroke-width:0.5;" width="15" x="255.9983" y="94"/><rect fill="#F1F1F1" height="2" style="stroke:#181818;stroke-width:0.5;" width="4" x="253.9983" y="96"/><rect fill="#F1F1F1" height="2" style="stroke:#181818;stroke-width:0.5;" width="4" x="253.9983" y="100"/><text fill="#000000" font-family="sans-serif" font-size="14" lengthAdjust="spacing" textLength="47.9883" x="203.01" y="121.9951">Sensor</text></g><!--entity Zigbee Radio Tx--><g class="entity" data-qualified-name="Field Level.Zigbee Sensor Node.Zigbee Radio Tx" data-source-line="7" id="ent0009"><rect fill="#F1F1F1" height="46.2969" rx="2.5" ry="2.5" style="stroke:#181818;stroke-width:0.5;" width="153.8662" x="303.07" y="196.3"/><rect fill="#F1F1F1" height="10" style="stroke:#181818;stroke-width:0.5;" width="15" x="436.9362" y="201.3"/><rect fill="#F1F1F1" height="2" style="stroke:#181818;stroke-width:0.5;" width="4" x="434.9362" y="203.3"/><rect fill="#F1F1F1" height="2" style="stroke:#181818;stroke-width:0.5;" width="4" x="434.9362" y="207.3"/><text fill="#000000" font-family="sans-serif" font-size="14" lengthAdjust="spacing" textLength="113.8662" x="318.07" y="229.2951">Zigbee Radio Tx</text></g><!--entity ZBRx--><g class="entity" data-qualified-name="Industrial Edge Gateway.ZBRx" data-source-line="12" id="ent0012"><rect fill="#F1F1F1" height="62.5938" rx="2.5" ry="2.5" style="stroke:#181818;stroke-width:0.5;" width="175.6318" x="292.18" y="429.59"/><rect fill="#F1F1F1" height="10" style="stroke:#181818;stroke-width:0.5;" width="15" x="447.8118" y="434.59"/><rect fill="#F1F1F1" height="2" style="stroke:#181818;stroke-width:0.5;" width="4" x="445.8118" y="436.59"/><rect fill="#F1F1F1" height="2" style="stroke:#181818;stroke-width:0.5;" width="4" x="445.8118" y="440.59"/><text fill="#000000" font-family="sans-serif" font-size="14" lengthAdjust="spacing" textLength="135.6318" x="307.18" y="462.5851">Zigbee Coordinator</text><text fill="#000000" font-family="sans-serif" font-size="14" lengthAdjust="spacing" textLength="73.0352" x="307.18" y="478.882">(Radio Rx)</text></g><!--entity MQ--><g class="entity" data-qualified-name="Industrial Edge Gateway.MQ" data-source-line="13" id="ent0013"><rect fill="#F1F1F1" height="46.2969" rx="2.5" ry="2.5" style="stroke:#181818;stroke-width:0.5;" width="151.8018" x="586.1" y="437.74"/><rect fill="#F1F1F1" height="10" style="stroke:#181818;stroke-width:0.5;" width="15" x="717.9018" y="442.74"/><rect fill="#F1F1F1" height="2" style="stroke:#181818;stroke-width:0.5;" width="4" x="715.9018" y="444.74"/><rect fill="#F1F1F1" height="2" style="stroke:#181818;stroke-width:0.5;" width="4" x="715.9018" y="448.74"/><text fill="#000000" font-family="sans-serif" font-size="14" lengthAdjust="spacing" textLength="111.8018" x="601.1" y="470.7351">Message Queue</text></g><!--entity Parser--><g class="entity" data-qualified-name="Industrial Edge Gateway.Parser" data-source-line="14" id="ent0014"><rect fill="#F1F1F1" height="46.2969" rx="2.5" ry="2.5" style="stroke:#181818;stroke-width:0.5;" width="144.1182" x="822.94" y="437.74"/><rect fill="#F1F1F1" height="10" style="stroke:#181818;stroke-width:0.5;" width="15" x="947.0582" y="442.74"/><rect fill="#F1F1F1" height="2" style="stroke:#181818;stroke-width:0.5;" width="4" x="945.0582" y="444.74"/><rect fill="#F1F1F1" height="2" style="stroke:#181818;stroke-width:0.5;" width="4" x="945.0582" y="448.74"/><text fill="#000000" font-family="sans-serif" font-size="14" lengthAdjust="spacing" textLength="104.1182" x="837.94" y="470.7351">Payload Parser</text></g><!--entity RegMap--><g class="entity" data-qualified-name="Industrial Edge Gateway.RegMap" data-source-line="15" id="ent0015"><rect fill="#F1F1F1" height="62.5938" rx="2.5" ry="2.5" style="stroke:#181818;stroke-width:0.5;" width="150.9814" x="726.51" y="610.19"/><rect fill="#F1F1F1" height="10" style="stroke:#181818;stroke-width:0.5;" width="15" x="857.4914" y="615.19"/><rect fill="#F1F1F1" height="2" style="stroke:#181818;stroke-width:0.5;" width="4" x="855.4914" y="617.19"/><rect fill="#F1F1F1" height="2" style="stroke:#181818;stroke-width:0.5;" width="4" x="855.4914" y="621.19"/><text fill="#000000" font-family="sans-serif" font-size="14" lengthAdjust="spacing" textLength="110.9814" x="741.51" y="643.1851">Shared Memory</text><text fill="#000000" font-family="sans-serif" font-size="14" lengthAdjust="spacing" textLength="103.1885" x="741.51" y="659.482">(Register Map)</text></g><!--entity MBServer--><g class="entity" data-qualified-name="Industrial Edge Gateway.MBServer" data-source-line="16" id="ent0016"><rect fill="#F1F1F1" height="62.5938" rx="2.5" ry="2.5" style="stroke:#181818;stroke-width:0.5;" width="156.3066" x="405.85" y="610.19"/><rect fill="#F1F1F1" height="10" style="stroke:#181818;stroke-width:0.5;" width="15" x="542.1566" y="615.19"/><rect fill="#F1F1F1" height="2" style="stroke:#181818;stroke-width:0.5;" width="4" x="540.1566" y="617.19"/><rect fill="#F1F1F1" height="2" style="stroke:#181818;stroke-width:0.5;" width="4" x="540.1566" y="621.19"/><text fill="#000000" font-family="sans-serif" font-size="14" lengthAdjust="spacing" textLength="104.9453" x="420.85" y="643.1851">Modbus Server</text><text fill="#000000" font-family="sans-serif" font-size="14" lengthAdjust="spacing" textLength="116.3066" x="420.85" y="659.482">(Slave Interface)</text></g><!--entity MBClient--><g class="entity" data-qualified-name="OT Network.PLC . SCADA.MBClient" data-source-line="26" id="ent0023"><rect fill="#F1F1F1" height="62.5938" rx="2.5" ry="2.5" style="stroke:#181818;stroke-width:0.5;" width="165.8633" x="46.07" y="429.59"/><rect fill="#F1F1F1" height="10" style="stroke:#181818;stroke-width:0.5;" width="15" x="191.9333" y="434.59"/><rect fill="#F1F1F1" height="2" style="stroke:#181818;stroke-width:0.5;" width="4" x="189.9333" y="436.59"/><rect fill="#F1F1F1" height="2" style="stroke:#181818;stroke-width:0.5;" width="4" x="189.9333" y="440.59"/><text fill="#000000" font-family="sans-serif" font-size="14" lengthAdjust="spacing" textLength="99.5654" x="61.07" y="462.5851">Modbus Client</text><text fill="#000000" font-family="sans-serif" font-size="14" lengthAdjust="spacing" textLength="125.8633" x="61.07" y="478.882">(Master Interface)</text></g><!--link Battery to MCU--><g class="link" data-entity-1="ent0004" data-entity-2="ent0005" data-link-type="dependency" data-source-line="5" id="lnk6"><path d="M161.16,219.44 C172.6,219.44 178.04,219.44 189.47,219.44" fill="none" id="Battery-to-MCU" style="stroke:#181818;stroke-width:1;"/><polygon fill="#181818" points="195.47,219.44,186.47,215.44,190.47,219.44,186.47,223.44,195.47,219.44" style="stroke:#181818;stroke-width:1;"/></g><!--link Sensor to MCU--><g class="link" data-entity-1="ent0007" data-entity-2="ent0005" data-link-type="dependency" data-source-line="6" id="lnk8"><path d="M232,135.74 C232,153.5 232,172.14 232,189.89" fill="none" id="Sensor-to-MCU" style="stroke:#181818;stroke-width:1;"/><polygon fill="#181818" points="232,195.89,236,186.89,232,190.89,228,186.89,232,195.89" style="stroke:#181818;stroke-width:1;"/></g><!--link MCU to Zigbee Radio Tx--><g class="link" data-entity-1="ent0005" data-entity-2="ent0009" data-link-type="dependency" data-source-line="7" id="lnk10"><path d="M268.42,219.44 C279.9,219.44 285.38,219.44 296.85,219.44" fill="none" id="MCU-to-Zigbee Radio Tx" style="stroke:#181818;stroke-width:1;"/><polygon fill="#181818" points="302.85,219.44,293.85,215.44,297.85,219.44,293.85,223.44,302.85,219.44" style="stroke:#181818;stroke-width:1;"/></g><!--link ZBRx to MQ--><g class="link" data-entity-1="ent0012" data-entity-2="ent0013" data-link-type="dependency" data-source-line="18" id="lnk17"><path d="M468.07,460.89 C505.88,460.89 543.64,460.89 580.01,460.89" fill="none" id="ZBRx-to-MQ" style="stroke:#181818;stroke-width:1;"/><polygon fill="#181818" points="586.01,460.89,577.01,456.89,581.01,460.89,577.01,464.89,586.01,460.89" style="stroke:#181818;stroke-width:1;"/><text fill="#000000" font-family="sans-serif" font-size="13" lengthAdjust="spacing" textLength="82.1133" x="485.96" y="453.9569">Raw Packets</text></g><!--link MQ to Parser--><g class="link" data-entity-1="ent0013" data-entity-2="ent0014" data-link-type="dependency" data-source-line="19" id="lnk18"><path d="M738.29,460.89 C765.37,460.89 789.75,460.89 816.49,460.89" fill="none" id="MQ-to-Parser" style="stroke:#181818;stroke-width:1;"/><polygon fill="#181818" points="822.49,460.89,813.49,456.89,817.49,460.89,813.49,464.89,822.49,460.89" style="stroke:#181818;stroke-width:1;"/><text fill="#000000" font-family="sans-serif" font-size="13" lengthAdjust="spacing" textLength="49.8291" x="755.92" y="453.9569">Process</text></g><!--link Parser to RegMap--><g class="link" data-entity-1="ent0014" data-entity-2="ent0015" data-link-type="dependency" data-source-line="20" id="lnk19"><path d="M883.22,484.51 C866.65,516.33 839.1914,569.0684 820.6514,604.6684" fill="none" id="Parser-to-RegMap" style="stroke:#181818;stroke-width:1;"/><polygon fill="#181818" points="817.88,609.99,825.5848,603.8552,820.1895,605.5553,818.4894,600.16,817.88,609.99" style="stroke:#181818;stroke-width:1;"/><text fill="#000000" font-family="sans-serif" font-size="13" lengthAdjust="spacing" textLength="105.3203" x="849.5" y="568.7569">Update Register</text></g><!--reverse link RegMap to MBServer--><g class="link" data-entity-1="ent0015" data-entity-2="ent0016" data-link-type="dependency" data-source-line="21" id="lnk20"><path d="M720.21,641.48 C670.83,641.48 612.54,641.48 562.61,641.48" fill="none" id="RegMap-backto-MBServer" style="stroke:#181818;stroke-width:1;"/><polygon fill="#181818" points="726.21,641.48,717.21,637.48,721.21,641.48,717.21,645.48,726.21,641.48" style="stroke:#181818;stroke-width:1;"/><text fill="#000000" font-family="sans-serif" font-size="13" lengthAdjust="spacing" textLength="71.1318" x="608.83" y="634.5469">Fetch Data</text></g><!--link Zigbee Radio Tx to ZBRx--><g class="link" data-entity-1="ent0009" data-entity-2="ent0012" data-link-type="dependency" data-source-line="30" id="lnk24"><path d="M380,242.97 C380,286.16 380,374.65 380,423.42" fill="none" id="Zigbee Radio Tx-to-ZBRx" style="stroke:#181818;stroke-width:1;stroke-dasharray:7,7;"/><polygon fill="#181818" points="380,429.42,384,420.42,380,424.42,376,420.42,380,429.42" style="stroke:#181818;stroke-width:1;"/><text fill="#000000" font-family="sans-serif" font-size="13" lengthAdjust="spacing" textLength="104.1143" x="397.3706" y="311.6569">Zigbee Wireless</text><text fill="#000000" font-family="sans-serif" font-size="13" lengthAdjust="spacing" textLength="136.8555" x="381" y="326.7897">(Asynchronous Push)</text></g><!--link MBClient to MBServer--><g class="link" data-entity-1="ent0023" data-entity-2="ent0016" data-link-type="dependency" data-source-line="31" id="lnk25"><path d="M190.5535,495.3833 C217.8135,510.0533 245.83,524.88 276,540.19 C323.37,564.21 372.009,587.6685 413.139,607.1785" fill="none" id="MBClient-MBServer" style="stroke:#181818;stroke-width:1;"/><polygon fill="#181818" points="185.27,492.54,191.2997,500.3273,189.6729,494.9094,195.0908,493.2827,185.27,492.54" style="stroke:#181818;stroke-width:1;"/><polygon fill="#181818" points="418.56,609.75,412.1428,602.2788,414.0425,607.6071,408.7141,609.5068,418.56,609.75" style="stroke:#181818;stroke-width:1;"/><text fill="#000000" font-family="sans-serif" font-size="13" lengthAdjust="spacing" textLength="102.7051" x="365.9811" y="561.2569">Ethernet/RS485</text><text fill="#000000" font-family="sans-serif" font-size="13" lengthAdjust="spacing" textLength="121.3672" x="356.65" y="576.3897">(Synchronous Poll)</text></g><?plantuml-src PL9DImCn4BtlhnWysOCAeY0YGhj-8BYwxIg2siEu6RkXQR8asRQB-D-TDBkr8kGGvhsPUUybRYvrZHONK9f5RJHfN_XM4JGBTPmaDPPpd17itKXI0kvfIMeFlX80RGINN-NiWmWAqivOUE1QH07UHkWzsNOA1rREAdzm2MzP-ZoDO6nWJ9YL_Wk5sqvFjs62GXfuMWVIT_AT977_dHQDyrQYWcl1Ec_HqmhRAABlJOsnGchqnhxh_JXfiXvC0HsyZYRhGCt8kM1qt5136oGRXtgEhJ8e84Vho6w0U0rWKQ4b0HajZ6t3Q9f9nwOXmpgEvmhVDmkC-6WS9sMN56GK2fS4TvhfdrXIf6UZY7C3dw3jDubi3ESSmuhtbtFoZWbSsi9H5LDoQqesmt1NwZEEMfZnN0kE2NgrpEoWYsxQLWUJRyYN5LoXnv3wzZyyFi43-PMnyztlaD-dS0H5EhmQRlz1PpnLalyM6yzm4z4_vv7GF--_TuV3mykOo3bqs8kqfDWg3nswLfULDThmghnnrI3f9xAhaDwlesjVaTNaZoR5oTbfU8hTNgFK8Fa1?></g></svg>