<?plantuml 1.2026.2?><svg xmlns="http://www.w3.org/2000/svg" xmlns:xlink="http://www.w3.org/1999/xlink" contentStyleType="text/css" data-diagram-type="SEQUENCE" height="569px" preserveAspectRatio="none" style="width:682px;height:569px;background:#FFFFFF;" version="1.1" viewBox="0 0 682 569" width="682px" zoomAndPan="magnify"><defs/><g><rect fill="none" height="75.3984" style="stroke:#000000;stroke-width:1.5;" width="344.8813" x="320.6797" y="425.9219"/><g class="participant-lifeline" data-entity-uid="part1" data-qualified-name="Sensor" id="part1-lifeline"><g><title>Zigbee Sensor</title><rect fill="#000000" fill-opacity="0.00000" height="465.7266" width="8" x="67.4595" y="52.5938"/><line style="stroke:#181818;stroke-width:0.5;stroke-dasharray:5,5;" x1="71" x2="71" y1="52.5938" y2="518.3203"/></g></g><g class="participant-lifeline" data-entity-uid="part2" data-qualified-name="GW_Z" id="part2-lifeline"><g><title>Gateway</title><rect fill="#000000" fill-opacity="0.00000" height="465.7266" width="8" x="225.7993" y="52.5938"/><line style="stroke:#181818;stroke-width:0.5;stroke-dasharray:5,5;" x1="228.9189" x2="228.9189" y1="52.5938" y2="518.3203"/></g></g><g class="participant-lifeline" data-entity-uid="part3" data-qualified-name="GW_M" id="part3-lifeline"><g><title>Gateway</title><rect fill="#000000" fill-opacity="0.00000" height="465.7266" width="8" x="414.7915" y="52.5938"/><line style="stroke:#181818;stroke-width:0.5;stroke-dasharray:5,5;" x1="418.6797" x2="418.6797" y1="52.5938" y2="518.3203"/></g></g><g class="participant-lifeline" data-entity-uid="part4" data-qualified-name="PLC" id="part4-lifeline"><g><title>PLC . SCADA</title><rect fill="#000000" fill-opacity="0.00000" height="465.7266" width="8" x="585.6763" y="52.5938"/><line style="stroke:#181818;stroke-width:0.5;stroke-dasharray:5,5;" x1="588.7915" x2="588.7915" y1="52.5938" y2="518.3203"/></g></g><g class="participant participant-head" data-entity-uid="part1" data-qualified-name="Sensor" id="part1-head"><rect fill="#E2E2F0" height="46.5938" rx="2.5" ry="2.5" style="stroke:#181818;stroke-width:0.5;" width="114.9189" x="14" y="5"/><text fill="#000000" font-family="sans-serif" font-size="14" lengthAdjust="spacing" textLength="100.9189" x="21" y="24.9951">Zigbee Sensor</text><text fill="#000000" font-family="sans-serif" font-size="14" lengthAdjust="spacing" textLength="89.8584" x="26.5303" y="41.292">(End Device)</text></g><g class="participant participant-tail" data-entity-uid="part1" data-qualified-name="Sensor" id="part1-tail"><rect fill="#E2E2F0" height="46.5938" rx="2.5" ry="2.5" style="stroke:#181818;stroke-width:0.5;" width="114.9189" x="14" y="517.3203"/><text fill="#000000" font-family="sans-serif" font-size="14" lengthAdjust="spacing" textLength="100.9189" x="21" y="537.3154">Zigbee Sensor</text><text fill="#000000" font-family="sans-serif" font-size="14" lengthAdjust="spacing" textLength="89.8584" x="26.5303" y="553.6123">(End Device)</text></g><g class="participant participant-head" data-entity-uid="part2" data-qualified-name="GW_Z" id="part2-head"><rect fill="#E2E2F0" height="46.5938" rx="2.5" ry="2.5" style="stroke:#181818;stroke-width:0.5;" width="181.7607" x="138.9189" y="5"/><text fill="#000000" font-family="sans-serif" font-size="14" lengthAdjust="spacing" textLength="61.8447" x="198.877" y="24.9951">Gateway</text><text fill="#000000" font-family="sans-serif" font-size="14" lengthAdjust="spacing" textLength="167.7607" x="145.9189" y="41.292">(Zigbee Radio &amp; Parser)</text></g><g class="participant participant-tail" data-entity-uid="part2" data-qualified-name="GW_Z" id="part2-tail"><rect fill="#E2E2F0" height="46.5938" rx="2.5" ry="2.5" style="stroke:#181818;stroke-width:0.5;" width="181.7607" x="138.9189" y="517.3203"/><text fill="#000000" font-family="sans-serif" font-size="14" lengthAdjust="spacing" textLength="61.8447" x="198.877" y="537.3154">Gateway</text><text fill="#000000" font-family="sans-serif" font-size="14" lengthAdjust="spacing" textLength="167.7607" x="145.9189" y="553.6123">(Zigbee Radio &amp; Parser)</text></g><g class="participant participant-head" data-entity-uid="part3" data-qualified-name="GW_M" id="part3-head"><rect fill="#E2E2F0" height="46.5938" rx="2.5" ry="2.5" style="stroke:#181818;stroke-width:0.5;" width="176.2236" x="330.6797" y="5"/><text fill="#000000" font-family="sans-serif" font-size="14" lengthAdjust="spacing" textLength="61.8447" x="387.8691" y="24.9951">Gateway</text><text fill="#000000" font-family="sans-serif" font-size="14" lengthAdjust="spacing" textLength="162.2236" x="337.6797" y="41.292">(Modbus Register Map)</text></g><g class="participant participant-tail" data-entity-uid="part3" data-qualified-name="GW_M" id="part3-tail"><rect fill="#E2E2F0" height="46.5938" rx="2.5" ry="2.5" style="stroke:#181818;stroke-width:0.5;" width="176.2236" x="330.6797" y="517.3203"/><text fill="#000000" font-family="sans-serif" font-size="14" lengthAdjust="spacing" textLength="61.8447" x="387.8691" y="537.3154">Gateway</text><text fill="#000000" font-family="sans-serif" font-size="14" lengthAdjust="spacing" textLength="162.2236" x="337.6797" y="553.6123">(Modbus Register Map)</text></g><g class="participant participant-head" data-entity-uid="part4" data-qualified-name="PLC" id="part4-head"><rect fill="#E2E2F0" height="46.5938" rx="2.5" ry="2.5" style="stroke:#181818;stroke-width:0.5;" width="131.7695" x="523.7915" y="5"/><text fill="#000000" font-family="sans-serif" font-size="14" lengthAdjust="spacing" textLength="88.2314" x="545.5605" y="24.9951">PLC / SCADA</text><text fill="#000000" font-family="sans-serif" font-size="14" lengthAdjust="spacing" textLength="117.7695" x="530.7915" y="41.292">(Modbus Master)</text></g><g class="participant participant-tail" data-entity-uid="part4" data-qualified-name="PLC" id="part4-tail"><rect fill="#E2E2F0" height="46.5938" rx="2.5" ry="2.5" style="stroke:#181818;stroke-width:0.5;" width="131.7695" x="523.7915" y="517.3203"/><text fill="#000000" font-family="sans-serif" font-size="14" lengthAdjust="spacing" textLength="88.2314" x="545.5605" y="537.3154">PLC / SCADA</text><text fill="#000000" font-family="sans-serif" font-size="14" lengthAdjust="spacing" textLength="117.7695" x="530.7915" y="553.6123">(Modbus Master)</text></g><path d="M5,67.5938 L5,92.5938 L139,92.5938 L139,77.5938 L129,67.5938 L5,67.5938" fill="#FEFFDD" style="stroke:#181818;stroke-width:0.5;"/><path d="M129,67.5938 L129,77.5938 L139,77.5938 L129,67.5938" fill="#FEFFDD" style="stroke:#181818;stroke-width:0.5;"/><text fill="#000000" font-family="sans-serif" font-size="13" lengthAdjust="spacing" textLength="113.0454" x="11" y="84.6606">Deep Sleep State</text><rect fill="#EEEEEE" height="3" style="stroke:#EEEEEE;stroke-width:1;" width="675.561" x="0" y="118.293"/><line style="stroke:#000000;stroke-width:1;" x1="0" x2="675.561" y1="118.293" y2="118.293"/><line style="stroke:#000000;stroke-width:1;" x1="0" x2="675.561" y1="121.293" y2="121.293"/><rect fill="#EEEEEE" height="23.1328" style="stroke:#000000;stroke-width:2;" width="152.4741" x="261.5435" y="107.7266"/><text fill="#000000" font-family="sans-serif" font-size="13" font-weight="bold" lengthAdjust="spacing" textLength="133.9482" x="267.5435" y="123.7935">Zigbee Push Cycle</text><g class="message" data-entity-1="part1" data-entity-2="part1" id="msg1"><line style="stroke:#181818;stroke-width:1;" x1="71.4595" x2="113.4595" y1="161.9922" y2="161.9922"/><line style="stroke:#181818;stroke-width:1;" x1="113.4595" x2="113.4595" y1="161.9922" y2="174.9922"/><line style="stroke:#181818;stroke-width:1;" x1="72.4595" x2="113.4595" y1="174.9922" y2="174.9922"/><polygon fill="#181818" points="82.4595,170.9922,72.4595,174.9922,82.4595,178.9922,78.4595,174.9922" style="stroke:#181818;stroke-width:1;"/><text fill="#000000" font-family="sans-serif" font-size="13" lengthAdjust="spacing" textLength="58.2461" x="78.4595" y="156.9263">Wake Up</text></g><g class="message" data-entity-1="part1" data-entity-2="part1" id="msg2"><line style="stroke:#181818;stroke-width:1;" x1="71.4595" x2="113.4595" y1="204.125" y2="204.125"/><line style="stroke:#181818;stroke-width:1;" x1="113.4595" x2="113.4595" y1="204.125" y2="217.125"/><line style="stroke:#181818;stroke-width:1;" x1="72.4595" x2="113.4595" y1="217.125" y2="217.125"/><polygon fill="#181818" points="82.4595,213.125,72.4595,217.125,82.4595,221.125,78.4595,217.125" style="stroke:#181818;stroke-width:1;"/><text fill="#000000" font-family="sans-serif" font-size="13" lengthAdjust="spacing" textLength="81.9419" x="78.4595" y="199.0591">Read Sensor</text></g><g class="message" data-entity-1="part1" data-entity-2="part2" id="msg3"><polygon fill="#181818" points="217.7993,242.2578,227.7993,246.2578,217.7993,250.2578,221.7993,246.2578" style="stroke:#181818;stroke-width:1;"/><line style="stroke:#181818;stroke-width:1;" x1="71.4595" x2="223.7993" y1="246.2578" y2="246.2578"/><text fill="#000000" font-family="sans-serif" font-size="13" lengthAdjust="spacing" textLength="113.0518" x="78.4595" y="241.1919">Transmit Payload</text></g><path d="M21,259.2578 L21,299.2578 L120,299.2578 L120,269.2578 L110,259.2578 L21,259.2578" fill="#FEFFDD" style="stroke:#181818;stroke-width:0.5;"/><path d="M110,259.2578 L110,269.2578 L120,269.2578 L110,259.2578" fill="#FEFFDD" style="stroke:#181818;stroke-width:0.5;"/><text fill="#000000" font-family="sans-serif" font-size="13" lengthAdjust="spacing" textLength="61.1343" x="27" y="276.3247">Return to</text><text fill="#000000" font-family="sans-serif" font-size="13" lengthAdjust="spacing" textLength="74.5024" x="31.1323" y="291.4575">Deep Sleep</text><g class="message" data-entity-1="part2" data-entity-2="part2" id="msg4"><line style="stroke:#181818;stroke-width:1;" x1="229.7993" x2="271.7993" y1="325.6563" y2="325.6563"/><line style="stroke:#181818;stroke-width:1;" x1="271.7993" x2="271.7993" y1="325.6563" y2="338.6563"/><line style="stroke:#181818;stroke-width:1;" x1="230.7993" x2="271.7993" y1="338.6563" y2="338.6563"/><polygon fill="#181818" points="240.7993,334.6563,230.7993,338.6563,240.7993,342.6563,236.7993,338.6563" style="stroke:#181818;stroke-width:1;"/><text fill="#000000" font-family="sans-serif" font-size="13" lengthAdjust="spacing" textLength="105.8662" x="236.7993" y="320.5903">Decrypt &amp; Parse</text></g><g class="message" data-entity-1="part2" data-entity-2="part3" id="msg5"><polygon fill="#181818" points="406.7915,363.7891,416.7915,367.7891,406.7915,371.7891,410.7915,367.7891" style="stroke:#181818;stroke-width:1;"/><line style="stroke:#181818;stroke-width:1;" x1="229.7993" x2="412.7915" y1="367.7891" y2="367.7891"/><text fill="#000000" font-family="sans-serif" font-size="13" lengthAdjust="spacing" textLength="105.3203" x="236.7993" y="362.7231">Update Register</text></g><rect fill="#EEEEEE" height="3" style="stroke:#EEEEEE;stroke-width:1;" width="675.561" x="0" y="396.3555"/><line style="stroke:#000000;stroke-width:1;" x1="0" x2="675.561" y1="396.3555" y2="396.3555"/><line style="stroke:#000000;stroke-width:1;" x1="0" x2="675.561" y1="399.3555" y2="399.3555"/><rect fill="#EEEEEE" height="23.1328" style="stroke:#000000;stroke-width:2;" width="151.4141" x="262.0735" y="385.7891"/><text fill="#000000" font-family="sans-serif" font-size="13" font-weight="bold" lengthAdjust="spacing" textLength="132.8882" x="268.0735" y="401.856">Modbus Poll Cycle</text><path d="M320.6797,425.9219 L397.3037,425.9219 L397.3037,433.0547 L387.3037,443.0547 L320.6797,443.0547 L320.6797,425.9219" fill="#EEEEEE" style="stroke:#000000;stroke-width:1.5;"/><rect fill="none" height="75.3984" style="stroke:#000000;stroke-width:1.5;" width="344.8813" x="320.6797" y="425.9219"/><text fill="#000000" font-family="sans-serif" font-size="13" font-weight="bold" lengthAdjust="spacing" textLength="31.624" x="335.6797" y="438.9888">loop</text><text fill="#000000" font-family="sans-serif" font-size="11" font-weight="bold" lengthAdjust="spacing" textLength="92.3452" x="412.3037" y="438.1323">[Cyclic Polling]</text><g class="message" data-entity-1="part4" data-entity-2="part3" id="msg6"><polygon fill="#181818" points="429.7915,460.1875,419.7915,464.1875,429.7915,468.1875,425.7915,464.1875" style="stroke:#181818;stroke-width:1;"/><line style="stroke:#181818;stroke-width:1;" x1="423.7915" x2="588.6763" y1="464.1875" y2="464.1875"/><text fill="#000000" font-family="sans-serif" font-size="13" lengthAdjust="spacing" textLength="125.9438" x="435.7915" y="459.1216">Read Data Request</text></g><g class="message" data-entity-1="part3" data-entity-2="part4" id="msg7"><polygon fill="#181818" points="577.6763,489.3203,587.6763,493.3203,577.6763,497.3203,581.6763,493.3203" style="stroke:#181818;stroke-width:1;"/><line style="stroke:#181818;stroke-width:1;" x1="418.7915" x2="583.6763" y1="493.3203" y2="493.3203"/><text fill="#000000" font-family="sans-serif" font-size="13" lengthAdjust="spacing" textLength="146.8848" x="425.7915" y="488.2544">Sensor Data Response</text></g><?plantuml-src TP3DQiCm48JlUeebXz8UIky65u9TSgd1s2s142WRQt54LKcLv1I_VMNvBuNKX-0mywrdng3reX46bOVDGRGd8gX9EMsFwlv5SSZf8Xfws02wIM3ccjcXfn_iWtkYA-H2mnsKQ1tP4TpjFmx_OONcfyv1HQrmdYmKQ1Qe-0kLhnayGPrjy-qA5ZXW8n8CZ2dj2VGbd1hp9g436QXb_FNXmuobAKnnoywT8UiRIP2cR2JWyNbXz_X9y6vkA1KXdoTPrQ5g0cyMbViIFgpGIutyHgYAV6SLU0r7TPMGiU72UYcdnlR6puDUgqKIWl7GPnal5fjsARMKQp6fjOd_H1CLeLe6uHacNQx5HZbw36_V7JaVBOCsU88rcTBF9cUq2fb8yLy0?></g></svg>